<svg width="90" height="21" viewBox="0 0 90 21" fill="none" xmlns="http://www.w3.org/2000/svg">
<path d="M62.6695 4.06762L60.1061 13.7957L56.8366 4.06762H53.9363L50.6993 13.7957L48.1328 4.06762H40.4828V0H36.3943V4.07221H30.3528V0H26.2674V4.07221H18.7534L16.1854 13.7957L12.9189 4.06762H10.0172L6.78164 13.7957L4.2167 4.06762H0L4.88729 19.8123H8.15527L11.4835 9.93594L14.8118 19.8138H18.0782L21.8607 7.15847H26.2674V15.1745C26.2674 17.4674 27.6828 19.8077 31.0157 19.8077H33.2469V16.3867H31.7712C30.7947 16.3867 30.3544 15.8578 30.3544 14.9253V7.15235H36.3959V15.1745C36.3959 17.4674 37.8128 19.8077 41.1456 19.8077H43.3768V16.3867H41.9012C40.9247 16.3867 40.4843 15.8578 40.4843 14.9253V7.15235H44.8772L48.8065 19.8077H52.0714L55.4011 9.93594L58.7294 19.8138H61.9974L66.8522 4.06915L62.6695 4.06762Z" fill="white"/>
<path d="M68.8731 10.5028C68.8823 8.43571 69.5109 6.41777 70.6794 4.70413C71.8479 2.9905 73.5038 1.65815 75.4378 0.87558C77.3717 0.0930083 79.4967 -0.104636 81.5442 0.307641C83.5917 0.719918 85.4696 1.7236 86.9405 3.19176C88.4113 4.65991 89.4091 6.5266 89.8075 8.55575C90.206 10.5849 89.9872 12.6854 89.179 14.5915C88.3707 16.4977 87.0092 18.1239 85.2667 19.2646C83.5242 20.4052 81.4788 21.0091 79.3894 20.9997C76.5879 20.9872 73.9061 19.8743 71.934 17.9057C69.9618 15.9372 68.8608 13.2743 68.8731 10.5028ZM85.4927 10.6556H86.6346L84.0959 4.85611L82.4164 4.84846L84.9643 10.6572H83.7915V12.1934C83.7915 13.1243 83.396 13.5202 82.1166 13.4988L82.1042 16.4628H83.7684L83.7823 13.4988H84.3323C84.6381 13.5001 84.9318 13.3814 85.1493 13.1688C85.3668 12.9562 85.4903 12.6671 85.4927 12.3646V10.6556ZM77.4487 4.83165C74.876 4.81942 72.7515 6.58802 72.7391 9.22486C72.7283 11.4429 74.071 13.0311 76.0828 13.3429L76.0704 16.4277L80.2609 16.446L80.2748 13.4805H80.8558C81.5356 13.4178 81.9992 12.9745 82.0084 12.3524V10.6373H83.1503L80.5854 4.84082L77.4487 4.83165ZM79.7402 9.86229C79.9541 9.86229 80.1632 9.79954 80.3411 9.68196C80.5189 9.56439 80.6576 9.39727 80.7394 9.20175C80.8213 9.00623 80.8427 8.79108 80.801 8.58352C80.7592 8.37595 80.6562 8.18529 80.505 8.03565C80.3537 7.886 80.161 7.78409 79.9512 7.7428C79.7414 7.70152 79.5239 7.72271 79.3263 7.8037C79.1286 7.88468 78.9597 8.02183 78.8408 8.19779C78.722 8.37376 78.6586 8.58064 78.6586 8.79227C78.6598 9.07526 78.7743 9.34625 78.977 9.54593C79.1797 9.74561 79.4541 9.85771 79.7402 9.85771V9.86229Z" fill="white"/>
</svg>
